<svg width="157" height="76" viewBox="0 0 157 76" fill="none" xmlns="http://www.w3.org/2000/svg">
<path d="M8.416 38.688C6.85867 38.688 5.472 38.4 4.256 37.824C3.06133 37.248 2.10133 36.4373 1.376 35.392L3.232 33.504C3.85067 34.2933 4.58667 34.8907 5.44 35.296C6.29333 35.7227 7.30667 35.936 8.48 35.936C10.0373 35.936 11.264 35.52 12.16 34.688C13.0773 33.8773 13.536 32.7787 13.536 31.392V27.616L14.048 24.192L13.536 20.8V16.8H16.416V31.392C16.416 32.8427 16.0747 34.112 15.392 35.2C14.7307 36.288 13.792 37.1413 12.576 37.76C11.3813 38.3787 9.99467 38.688 8.416 38.688ZM8.416 31.744C7.02933 31.744 5.78133 31.4133 4.672 30.752C3.584 30.0907 2.72 29.184 2.08 28.032C1.44 26.8587 1.12 25.5467 1.12 24.096C1.12 22.6453 1.44 21.3547 2.08 20.224C2.72 19.072 3.584 18.1653 4.672 17.504C5.78133 16.8213 7.02933 16.48 8.416 16.48C9.61067 16.48 10.6667 16.7147 11.584 17.184C12.5013 17.6533 13.2267 18.3147 13.76 19.168C14.3147 20 14.6133 20.9813 14.656 22.112V26.144C14.592 27.2533 14.2827 28.2347 13.728 29.088C13.1947 29.92 12.4693 30.5707 11.552 31.04C10.6347 31.5093 9.58933 31.744 8.416 31.744ZM8.992 29.024C9.93067 29.024 10.752 28.8213 11.456 28.416C12.1813 28.0107 12.736 27.4453 13.12 26.72C13.504 25.9733 13.696 25.1093 13.696 24.128C13.696 23.1467 13.4933 22.2933 13.088 21.568C12.704 20.8213 12.16 20.2453 11.456 19.84C10.752 19.4133 9.92 19.2 8.96 19.2C8 19.2 7.15733 19.4133 6.432 19.84C5.70667 20.2453 5.13067 20.8213 4.704 21.568C4.29867 22.2933 4.096 23.136 4.096 24.096C4.096 25.056 4.29867 25.9093 4.704 26.656C5.13067 27.4027 5.70667 27.9893 6.432 28.416C7.17867 28.8213 8.032 29.024 8.992 29.024ZM20.6432 32V16.8H23.5233V32H20.6432ZM23.5233 23.328L22.4353 22.848C22.4353 20.9067 22.8833 19.36 23.7793 18.208C24.6753 17.056 25.9659 16.48 27.6513 16.48C28.4193 16.48 29.1126 16.6187 29.7313 16.896C30.3499 17.152 30.9259 17.5893 31.4593 18.208L29.5713 20.16C29.2513 19.8187 28.8993 19.5733 28.5153 19.424C28.1313 19.2747 27.6833 19.2 27.1713 19.2C26.1046 19.2 25.2299 19.5413 24.5473 20.224C23.8646 20.9067 23.5233 21.9413 23.5233 23.328ZM39.931 32.32C38.4377 32.32 37.0937 31.968 35.899 31.264C34.7043 30.56 33.755 29.6107 33.051 28.416C32.347 27.2 31.995 25.8453 31.995 24.352C31.995 22.88 32.347 21.5573 33.051 20.384C33.755 19.1893 34.7043 18.24 35.899 17.536C37.0937 16.832 38.4377 16.48 39.931 16.48C41.403 16.48 42.7363 16.832 43.931 17.536C45.147 18.2187 46.107 19.1573 46.811 20.352C47.515 21.5467 47.867 22.88 47.867 24.352C47.867 25.8453 47.515 27.2 46.811 28.416C46.107 29.6107 45.147 30.56 43.931 31.264C42.7363 31.968 41.403 32.32 39.931 32.32ZM39.931 29.536C40.891 29.536 41.7443 29.312 42.491 28.864C43.2377 28.416 43.8243 27.808 44.251 27.04C44.6777 26.2507 44.891 25.3547 44.891 24.352C44.891 23.3707 44.667 22.496 44.219 21.728C43.7923 20.96 43.2057 20.3627 42.459 19.936C41.7337 19.488 40.891 19.264 39.931 19.264C38.971 19.264 38.1177 19.488 37.371 19.936C36.6243 20.3627 36.0377 20.96 35.611 21.728C35.1843 22.496 34.971 23.3707 34.971 24.352C34.971 25.3547 35.1843 26.2507 35.611 27.04C36.0377 27.808 36.6243 28.416 37.371 28.864C38.1177 29.312 38.971 29.536 39.931 29.536ZM55.0265 32L49.0105 16.8H52.0185L56.3705 28.64H55.4105L59.7305 16.8H61.3945L65.7145 28.64H64.7545L69.1065 16.8H72.1145L66.1305 32H64.4345L60.0505 20.512H61.1065L56.6905 32H55.0265ZM74.2905 32V16.448H79.1865V32H74.2905ZM84.2425 32V22.912C84.2425 22.1227 83.9972 21.5147 83.5065 21.088C83.0372 20.64 82.4505 20.416 81.7465 20.416C81.2558 20.416 80.8185 20.5227 80.4345 20.736C80.0505 20.928 79.7412 21.2053 79.5065 21.568C79.2932 21.9307 79.1865 22.3787 79.1865 22.912L77.2985 22.08C77.2985 20.8427 77.5652 19.7867 78.0985 18.912C78.6318 18.016 79.3572 17.3333 80.2745 16.864C81.1918 16.3733 82.2265 16.128 83.3785 16.128C84.4665 16.128 85.4372 16.3733 86.2905 16.864C87.1652 17.3547 87.8585 18.0373 88.3705 18.912C88.8825 19.7867 89.1385 20.832 89.1385 22.048V32H84.2425ZM94.1945 32V22.912C94.1945 22.1227 93.9492 21.5147 93.4585 21.088C92.9892 20.64 92.4025 20.416 91.6985 20.416C91.2078 20.416 90.7705 20.5227 90.3865 20.736C90.0025 20.928 89.6932 21.2053 89.4585 21.568C89.2452 21.9307 89.1385 22.3787 89.1385 22.912L86.3225 22.528C86.3652 21.2053 86.6745 20.0747 87.2505 19.136C87.8478 18.176 88.6265 17.44 89.5865 16.928C90.5678 16.3947 91.6665 16.128 92.8825 16.128C94.0772 16.128 95.1332 16.384 96.0505 16.896C96.9892 17.3867 97.7252 18.1013 98.2585 19.04C98.8132 19.9573 99.0905 21.0667 99.0905 22.368V32H94.1945ZM108.724 32.32C107.295 32.32 106.015 31.968 104.884 31.264C103.775 30.56 102.889 29.6 102.228 28.384C101.588 27.168 101.268 25.7813 101.268 24.224C101.268 22.6667 101.588 21.28 102.228 20.064C102.889 18.848 103.775 17.888 104.884 17.184C106.015 16.48 107.295 16.128 108.724 16.128C109.769 16.128 110.708 16.3307 111.54 16.736C112.393 17.1413 113.087 17.7067 113.62 18.432C114.153 19.136 114.452 19.9467 114.516 20.864V27.584C114.452 28.5013 114.153 29.3227 113.62 30.048C113.108 30.752 112.425 31.3067 111.572 31.712C110.719 32.1173 109.769 32.32 108.724 32.32ZM109.716 27.904C110.761 27.904 111.604 27.5627 112.244 26.88C112.884 26.176 113.204 25.2907 113.204 24.224C113.204 23.4987 113.055 22.8587 112.756 22.304C112.479 21.7493 112.073 21.3227 111.54 21.024C111.028 20.704 110.431 20.544 109.748 20.544C109.065 20.544 108.457 20.704 107.924 21.024C107.412 21.3227 106.996 21.7493 106.676 22.304C106.377 22.8587 106.228 23.4987 106.228 24.224C106.228 24.928 106.377 25.5573 106.676 26.112C106.975 26.6667 107.391 27.104 107.924 27.424C108.457 27.744 109.055 27.904 109.716 27.904ZM113.012 32V27.808L113.748 24.032L113.012 20.256V16.448H117.812V32H113.012ZM123.467 32V10.016H128.363V32H123.467ZM119.947 20.608V16.448H131.883V20.608H119.947ZM134.041 32V16.448H138.937V32H134.041ZM136.505 14.304C135.737 14.304 135.097 14.048 134.585 13.536C134.094 13.0027 133.849 12.3627 133.849 11.616C133.849 10.848 134.094 10.208 134.585 9.696C135.097 9.184 135.737 8.928 136.505 8.928C137.273 8.928 137.902 9.184 138.393 9.696C138.883 10.208 139.129 10.848 139.129 11.616C139.129 12.3627 138.883 13.0027 138.393 13.536C137.902 14.048 137.273 14.304 136.505 14.304ZM149.904 32.352C148.304 32.352 146.854 32 145.552 31.296C144.251 30.592 143.227 29.6213 142.48 28.384C141.734 27.1467 141.36 25.76 141.36 24.224C141.36 22.6667 141.734 21.28 142.48 20.064C143.248 18.8267 144.283 17.856 145.584 17.152C146.886 16.448 148.347 16.096 149.968 16.096C151.184 16.096 152.294 16.3093 153.296 16.736C154.32 17.1413 155.227 17.76 156.016 18.592L152.88 21.728C152.518 21.3227 152.091 21.024 151.6 20.832C151.131 20.64 150.587 20.544 149.968 20.544C149.264 20.544 148.635 20.704 148.08 21.024C147.547 21.3227 147.12 21.7493 146.8 22.304C146.502 22.8373 146.352 23.4667 146.352 24.192C146.352 24.9173 146.502 25.5573 146.8 26.112C147.12 26.6667 147.558 27.104 148.112 27.424C148.667 27.744 149.286 27.904 149.968 27.904C150.608 27.904 151.174 27.7973 151.664 27.584C152.176 27.3493 152.614 27.0293 152.976 26.624L156.08 29.76C155.27 30.6133 154.352 31.264 153.328 31.712C152.304 32.1387 151.163 32.352 149.904 32.352Z" fill="white"/>
<rect y="44" width="157" height="32" rx="11" fill="url(#paint0_linear_31_2)"/>
<path d="M23.5281 66.19C22.9075 66.19 22.3375 66.0697 21.8181 65.829C21.2988 65.5883 20.8745 65.259 20.5451 64.841C20.2158 64.4103 20.0258 63.9227 19.9751 63.378V59.483C20.0258 58.9383 20.2158 58.4443 20.5451 58.001C20.8745 57.5577 21.2988 57.2093 21.8181 56.956C22.3375 56.7027 22.9075 56.576 23.5281 56.576C24.4021 56.576 25.1748 56.785 25.8461 57.203C26.5301 57.621 27.0621 58.191 27.4421 58.913C27.8348 59.635 28.0311 60.4583 28.0311 61.383C28.0311 62.3077 27.8348 63.131 27.4421 63.853C27.0621 64.575 26.5301 65.145 25.8461 65.563C25.1748 65.981 24.4021 66.19 23.5281 66.19ZM18.2081 69.895V56.766H21.1151V59.141L20.6401 61.383L21.0771 63.625V69.895H18.2081ZM22.9961 63.568C23.4141 63.568 23.7751 63.473 24.0791 63.283C24.3958 63.093 24.6428 62.8333 24.8201 62.504C24.9975 62.1747 25.0861 61.801 25.0861 61.383C25.0861 60.9523 24.9975 60.5723 24.8201 60.243C24.6428 59.9137 24.3958 59.6603 24.0791 59.483C23.7751 59.293 23.4205 59.198 23.0151 59.198C22.6098 59.198 22.2488 59.293 21.9321 59.483C21.6281 59.6603 21.3875 59.9137 21.2101 60.243C21.0328 60.5723 20.9441 60.9523 20.9441 61.383C20.9441 61.801 21.0265 62.1747 21.1911 62.504C21.3685 62.8333 21.6155 63.093 21.9321 63.283C22.2488 63.473 22.6035 63.568 22.9961 63.568ZM29.5079 66V56.766H32.4149V66H29.5079ZM32.4149 60.927L31.1989 59.977C31.4396 58.9003 31.8449 58.0643 32.4149 57.469C32.9849 56.8737 33.7766 56.576 34.7899 56.576C35.2333 56.576 35.6196 56.6457 35.9489 56.785C36.2909 56.9117 36.5886 57.1143 36.8419 57.393L35.1129 59.578C34.9863 59.4387 34.8279 59.331 34.6379 59.255C34.4479 59.179 34.2326 59.141 33.9919 59.141C33.5106 59.141 33.1243 59.293 32.8329 59.597C32.5543 59.8883 32.4149 60.3317 32.4149 60.927ZM41.8026 66.209C40.8526 66.209 39.9912 66 39.2186 65.582C38.4586 65.1513 37.8569 64.5687 37.4136 63.834C36.9702 63.0993 36.7486 62.276 36.7486 61.364C36.7486 60.452 36.9702 59.635 37.4136 58.913C37.8569 58.191 38.4586 57.621 39.2186 57.203C39.9786 56.7723 40.8399 56.557 41.8026 56.557C42.7652 56.557 43.6266 56.766 44.3866 57.184C45.1466 57.602 45.7482 58.1783 46.1916 58.913C46.6349 59.635 46.8566 60.452 46.8566 61.364C46.8566 62.276 46.6349 63.0993 46.1916 63.834C45.7482 64.5687 45.1466 65.1513 44.3866 65.582C43.6266 66 42.7652 66.209 41.8026 66.209ZM41.8026 63.568C42.2206 63.568 42.5879 63.4793 42.9046 63.302C43.2212 63.112 43.4619 62.8523 43.6266 62.523C43.8039 62.181 43.8926 61.7947 43.8926 61.364C43.8926 60.9333 43.8039 60.5597 43.6266 60.243C43.4492 59.9137 43.2022 59.6603 42.8856 59.483C42.5816 59.293 42.2206 59.198 41.8026 59.198C41.3972 59.198 41.0362 59.293 40.7196 59.483C40.4029 59.6603 40.1559 59.9137 39.9786 60.243C39.8012 60.5723 39.7126 60.9523 39.7126 61.383C39.7126 61.801 39.8012 62.181 39.9786 62.523C40.1559 62.8523 40.4029 63.112 40.7196 63.302C41.0362 63.4793 41.3972 63.568 41.8026 63.568ZM51.6668 66.228C51.1222 66.228 50.5838 66.1583 50.0518 66.019C49.5325 65.8797 49.0448 65.6833 48.5888 65.43C48.1455 65.164 47.7655 64.86 47.4488 64.518L49.1018 62.846C49.4058 63.1753 49.7668 63.435 50.1848 63.625C50.6028 63.8023 51.0588 63.891 51.5528 63.891C51.8948 63.891 52.1545 63.8403 52.3318 63.739C52.5218 63.6377 52.6168 63.4983 52.6168 63.321C52.6168 63.093 52.5028 62.922 52.2748 62.808C52.0595 62.6813 51.7808 62.5737 51.4388 62.485C51.0968 62.3837 50.7358 62.276 50.3558 62.162C49.9758 62.048 49.6148 61.8897 49.2728 61.687C48.9308 61.4843 48.6522 61.2057 48.4368 60.851C48.2215 60.4837 48.1138 60.0213 48.1138 59.464C48.1138 58.8687 48.2658 58.3557 48.5698 57.925C48.8738 57.4817 49.3045 57.1333 49.8618 56.88C50.4192 56.6267 51.0715 56.5 51.8188 56.5C52.6042 56.5 53.3262 56.6393 53.9848 56.918C54.6562 57.184 55.2008 57.583 55.6188 58.115L53.9658 59.787C53.6745 59.445 53.3452 59.2043 52.9778 59.065C52.6232 58.9257 52.2748 58.856 51.9328 58.856C51.6035 58.856 51.3565 58.9067 51.1918 59.008C51.0272 59.0967 50.9448 59.2297 50.9448 59.407C50.9448 59.597 51.0525 59.749 51.2678 59.863C51.4832 59.977 51.7618 60.0783 52.1038 60.167C52.4458 60.2557 52.8068 60.3633 53.1868 60.49C53.5668 60.6167 53.9278 60.7877 54.2698 61.003C54.6118 61.2183 54.8905 61.5097 55.1058 61.877C55.3212 62.2317 55.4288 62.7003 55.4288 63.283C55.4288 64.1823 55.0868 64.898 54.4028 65.43C53.7315 65.962 52.8195 66.228 51.6668 66.228ZM62.326 66.19C61.7053 66.19 61.1353 66.0697 60.616 65.829C60.0966 65.5883 59.6723 65.259 59.343 64.841C59.0136 64.4103 58.8236 63.9227 58.773 63.378V59.483C58.8236 58.9383 59.0136 58.4443 59.343 58.001C59.6723 57.5577 60.0966 57.2093 60.616 56.956C61.1353 56.7027 61.7053 56.576 62.326 56.576C63.2 56.576 63.9726 56.785 64.644 57.203C65.328 57.621 65.86 58.191 66.24 58.913C66.6326 59.635 66.829 60.4583 66.829 61.383C66.829 62.3077 66.6326 63.131 66.24 63.853C65.86 64.575 65.328 65.145 64.644 65.563C63.9726 65.981 63.2 66.19 62.326 66.19ZM57.006 69.895V56.766H59.913V59.141L59.438 61.383L59.875 63.625V69.895H57.006ZM61.794 63.568C62.212 63.568 62.573 63.473 62.877 63.283C63.1936 63.093 63.4406 62.8333 63.618 62.504C63.7953 62.1747 63.884 61.801 63.884 61.383C63.884 60.9523 63.7953 60.5723 63.618 60.243C63.4406 59.9137 63.1936 59.6603 62.877 59.483C62.573 59.293 62.2183 59.198 61.813 59.198C61.4076 59.198 61.0466 59.293 60.73 59.483C60.426 59.6603 60.1853 59.9137 60.008 60.243C59.8306 60.5723 59.742 60.9523 59.742 61.383C59.742 61.801 59.8243 62.1747 59.989 62.504C60.1663 62.8333 60.4133 63.093 60.73 63.283C61.0466 63.473 61.4013 63.568 61.794 63.568ZM72.8658 66.209C71.8651 66.209 70.9721 66.0063 70.1868 65.601C69.4141 65.183 68.8061 64.6067 68.3628 63.872C67.9195 63.1373 67.6978 62.3077 67.6978 61.383C67.6978 60.4583 67.9131 59.635 68.3438 58.913C68.7871 58.1783 69.3825 57.602 70.1298 57.184C70.8771 56.766 71.7195 56.557 72.6568 56.557C73.5688 56.557 74.3731 56.7533 75.0698 57.146C75.7665 57.5387 76.3111 58.0833 76.7038 58.78C77.1091 59.4767 77.3118 60.2747 77.3118 61.174C77.3118 61.3387 77.2991 61.516 77.2738 61.706C77.2611 61.8833 77.2295 62.0923 77.1788 62.333L69.2178 62.352V60.357L75.9438 60.338L74.6898 61.174C74.6771 60.642 74.5948 60.205 74.4428 59.863C74.2908 59.5083 74.0628 59.2423 73.7588 59.065C73.4675 58.875 73.1065 58.78 72.6758 58.78C72.2198 58.78 71.8208 58.8877 71.4788 59.103C71.1495 59.3057 70.8898 59.597 70.6998 59.977C70.5225 60.357 70.4338 60.8193 70.4338 61.364C70.4338 61.9087 70.5288 62.3773 70.7188 62.77C70.9215 63.15 71.2001 63.4477 71.5548 63.663C71.9221 63.8657 72.3528 63.967 72.8468 63.967C73.3028 63.967 73.7145 63.891 74.0818 63.739C74.4491 63.5743 74.7721 63.3337 75.0508 63.017L76.6468 64.613C76.1908 65.145 75.6398 65.544 74.9938 65.81C74.3478 66.076 73.6385 66.209 72.8658 66.209ZM83.18 66.209C82.23 66.209 81.3686 66 80.596 65.582C79.8233 65.164 79.2153 64.5877 78.772 63.853C78.3286 63.1183 78.107 62.295 78.107 61.383C78.107 60.4583 78.3286 59.635 78.772 58.913C79.228 58.1783 79.8423 57.602 80.615 57.184C81.3876 56.766 82.2553 56.557 83.218 56.557C83.94 56.557 84.5986 56.6837 85.194 56.937C85.802 57.1777 86.3403 57.545 86.809 58.039L84.947 59.901C84.7316 59.6603 84.4783 59.483 84.187 59.369C83.9083 59.255 83.5853 59.198 83.218 59.198C82.8 59.198 82.4263 59.293 82.097 59.483C81.7803 59.6603 81.527 59.9137 81.337 60.243C81.1596 60.5597 81.071 60.9333 81.071 61.364C81.071 61.7947 81.1596 62.1747 81.337 62.504C81.527 62.8333 81.7866 63.093 82.116 63.283C82.4453 63.473 82.8126 63.568 83.218 63.568C83.598 63.568 83.9336 63.5047 84.225 63.378C84.529 63.2387 84.7886 63.0487 85.004 62.808L86.847 64.67C86.3656 65.1767 85.821 65.563 85.213 65.829C84.605 66.0823 83.9273 66.209 83.18 66.209ZM89.3033 66V52.947H92.2103V66H89.3033ZM87.2133 59.236V56.766H94.3003V59.236H87.2133ZM95.5812 66V56.766H98.4882V66H95.5812ZM97.0442 55.493C96.5882 55.493 96.2082 55.341 95.9042 55.037C95.6128 54.7203 95.4672 54.3403 95.4672 53.897C95.4672 53.441 95.6128 53.061 95.9042 52.757C96.2082 52.453 96.5882 52.301 97.0442 52.301C97.5002 52.301 97.8738 52.453 98.1652 52.757C98.4565 53.061 98.6022 53.441 98.6022 53.897C98.6022 54.3403 98.4565 54.7203 98.1652 55.037C97.8738 55.341 97.5002 55.493 97.0442 55.493ZM106.634 66V60.737C106.634 60.2557 106.482 59.8693 106.178 59.578C105.887 59.274 105.513 59.122 105.057 59.122C104.741 59.122 104.462 59.1917 104.221 59.331C103.981 59.4577 103.791 59.6477 103.651 59.901C103.512 60.1417 103.442 60.4203 103.442 60.737L102.321 60.186C102.321 59.464 102.48 58.8307 102.796 58.286C103.113 57.7413 103.55 57.3233 104.107 57.032C104.677 56.728 105.317 56.576 106.026 56.576C106.71 56.576 107.312 56.7407 107.831 57.07C108.363 57.3867 108.781 57.811 109.085 58.343C109.389 58.875 109.541 59.4577 109.541 60.091V66H106.634ZM100.535 66V56.766H103.442V66H100.535ZM115.322 70.142C114.309 70.142 113.416 69.9647 112.643 69.61C111.883 69.268 111.282 68.7803 110.838 68.147L112.624 66.361C112.954 66.7537 113.321 67.0513 113.726 67.254C114.144 67.4567 114.645 67.558 115.227 67.558C115.949 67.558 116.513 67.3807 116.918 67.026C117.336 66.6713 117.545 66.171 117.545 65.525V63.169L118.039 61.155L117.602 59.141V56.766H120.452V65.449C120.452 66.399 120.231 67.2223 119.787 67.919C119.344 68.6157 118.736 69.1603 117.963 69.553C117.191 69.9457 116.31 70.142 115.322 70.142ZM115.189 65.715C114.341 65.715 113.587 65.5123 112.928 65.107C112.27 64.7017 111.75 64.1507 111.37 63.454C110.99 62.7573 110.8 61.9847 110.8 61.136C110.8 60.2747 110.99 59.502 111.37 58.818C111.75 58.1213 112.27 57.5767 112.928 57.184C113.587 56.7787 114.341 56.576 115.189 56.576C115.823 56.576 116.386 56.6963 116.88 56.937C117.387 57.165 117.792 57.4943 118.096 57.925C118.413 58.343 118.59 58.8307 118.628 59.388V62.903C118.59 63.4477 118.413 63.9353 118.096 64.366C117.792 64.784 117.387 65.1133 116.88 65.354C116.374 65.5947 115.81 65.715 115.189 65.715ZM115.74 63.131C116.146 63.131 116.494 63.0423 116.785 62.865C117.089 62.6877 117.317 62.4533 117.469 62.162C117.634 61.858 117.716 61.516 117.716 61.136C117.716 60.756 117.634 60.414 117.469 60.11C117.317 59.806 117.089 59.5653 116.785 59.388C116.494 59.2107 116.146 59.122 115.74 59.122C115.348 59.122 114.999 59.2107 114.695 59.388C114.391 59.5653 114.157 59.806 113.992 60.11C113.828 60.414 113.745 60.756 113.745 61.136C113.745 61.4907 113.828 61.8263 113.992 62.143C114.157 62.447 114.385 62.6877 114.676 62.865C114.98 63.0423 115.335 63.131 115.74 63.131ZM124.843 66L130.163 52.586H132.861L138.124 66H134.97L130.942 54.866H132.025L127.94 66H124.843ZM127.864 63.568V61.136H135.179V63.568H127.864ZM139.543 66V52.586H142.526V66H139.543Z" fill="white"/>
<defs>
<linearGradient id="paint0_linear_31_2" x1="2.39363e-06" y1="112" x2="169.5" y2="25" gradientUnits="userSpaceOnUse">
<stop stop-color="#8000FF"/>
<stop offset="1" stop-color="#061AF3"/>
</linearGradient>
</defs>
</svg>
