<svg width="320" height="131" viewBox="0 0 320 131" fill="none" xmlns="http://www.w3.org/2000/svg">
<path d="M19.832 102.376C16.7173 102.376 13.944 101.8 11.512 100.648C9.12267 99.496 7.20267 97.8747 5.752 95.784L9.464 92.008C10.7013 93.5867 12.1733 94.7813 13.88 95.592C15.5867 96.4453 17.6133 96.872 19.96 96.872C23.0747 96.872 25.528 96.04 27.32 94.376C29.1547 92.7547 30.072 90.5573 30.072 87.784V80.232L31.096 73.384L30.072 66.6V58.6H35.832V87.784C35.832 90.6853 35.1493 93.224 33.784 95.4C32.4613 97.576 30.584 99.2827 28.152 100.52C25.7627 101.757 22.9893 102.376 19.832 102.376ZM19.832 88.488C17.0587 88.488 14.5627 87.8267 12.344 86.504C10.168 85.1813 8.44 83.368 7.16 81.064C5.88 78.7173 5.24 76.0933 5.24 73.192C5.24 70.2907 5.88 67.7093 7.16 65.448C8.44 63.144 10.168 61.3307 12.344 60.008C14.5627 58.6427 17.0587 57.96 19.832 57.96C22.2213 57.96 24.3333 58.4293 26.168 59.368C28.0027 60.3067 29.4533 61.6293 30.52 63.336C31.6293 65 32.2267 66.9627 32.312 69.224V77.288C32.184 79.5067 31.5653 81.4693 30.456 83.176C29.3893 84.84 27.9387 86.1413 26.104 87.08C24.2693 88.0187 22.1787 88.488 19.832 88.488ZM20.984 83.048C22.8613 83.048 24.504 82.6427 25.912 81.832C27.3627 81.0213 28.472 79.8907 29.24 78.44C30.008 76.9467 30.392 75.2187 30.392 73.256C30.392 71.2933 29.9867 69.5867 29.176 68.136C28.408 66.6427 27.32 65.4907 25.912 64.68C24.504 63.8267 22.84 63.4 20.92 63.4C19 63.4 17.3147 63.8267 15.864 64.68C14.4133 65.4907 13.2613 66.6427 12.408 68.136C11.5973 69.5867 11.192 71.272 11.192 73.192C11.192 75.112 11.5973 76.8187 12.408 78.312C13.2613 79.8053 14.4133 80.9787 15.864 81.832C17.3573 82.6427 19.064 83.048 20.984 83.048ZM44.2865 89V58.6H50.0465V89H44.2865ZM50.0465 71.656L47.8705 70.696C47.8705 66.8133 48.7665 63.72 50.5585 61.416C52.3505 59.112 54.9318 57.96 58.3025 57.96C59.8385 57.96 61.2252 58.2373 62.4625 58.792C63.6998 59.304 64.8518 60.1787 65.9185 61.416L62.1425 65.32C61.5025 64.6373 60.7985 64.1467 60.0305 63.848C59.2625 63.5493 58.3665 63.4 57.3425 63.4C55.2092 63.4 53.4598 64.0827 52.0945 65.448C50.7292 66.8133 50.0465 68.8827 50.0465 71.656ZM82.862 89.64C79.8753 89.64 77.1873 88.936 74.798 87.528C72.4087 86.12 70.51 84.2213 69.102 81.832C67.694 79.4 66.99 76.6907 66.99 73.704C66.99 70.76 67.694 68.1147 69.102 65.768C70.51 63.3787 72.4087 61.48 74.798 60.072C77.1873 58.664 79.8753 57.96 82.862 57.96C85.806 57.96 88.4727 58.664 90.862 60.072C93.294 61.4373 95.214 63.3147 96.622 65.704C98.03 68.0933 98.734 70.76 98.734 73.704C98.734 76.6907 98.03 79.4 96.622 81.832C95.214 84.2213 93.294 86.12 90.862 87.528C88.4727 88.936 85.806 89.64 82.862 89.64ZM82.862 84.072C84.782 84.072 86.4887 83.624 87.982 82.728C89.4753 81.832 90.6487 80.616 91.502 79.08C92.3553 77.5013 92.782 75.7093 92.782 73.704C92.782 71.7413 92.334 69.992 91.438 68.456C90.5847 66.92 89.4113 65.7253 87.918 64.872C86.4673 63.976 84.782 63.528 82.862 63.528C80.942 63.528 79.2353 63.976 77.742 64.872C76.2487 65.7253 75.0753 66.92 74.222 68.456C73.3687 69.992 72.942 71.7413 72.942 73.704C72.942 75.7093 73.3687 77.5013 74.222 79.08C75.0753 80.616 76.2487 81.832 77.742 82.728C79.2353 83.624 80.942 84.072 82.862 84.072ZM113.053 89L101.021 58.6H107.037L115.741 82.28H113.821L122.461 58.6H125.789L134.429 82.28H132.509L141.213 58.6H147.229L135.261 89H131.869L123.101 66.024H125.213L116.381 89H113.053Z" fill="#222222"/>
<path d="M151.581 89V57.896H161.373V89H151.581ZM171.485 89V70.824C171.485 69.2453 170.994 68.0293 170.013 67.176C169.074 66.28 167.901 65.832 166.493 65.832C165.512 65.832 164.637 66.0453 163.869 66.472C163.101 66.856 162.482 67.4107 162.013 68.136C161.586 68.8613 161.373 69.7573 161.373 70.824L157.597 69.16C157.597 66.6853 158.13 64.5733 159.197 62.824C160.264 61.032 161.714 59.6667 163.549 58.728C165.384 57.7467 167.453 57.256 169.757 57.256C171.933 57.256 173.874 57.7467 175.581 58.728C177.33 59.7093 178.717 61.0747 179.741 62.824C180.765 64.5733 181.277 66.664 181.277 69.096V89H171.485ZM191.389 89V70.824C191.389 69.2453 190.898 68.0293 189.917 67.176C188.978 66.28 187.805 65.832 186.397 65.832C185.416 65.832 184.541 66.0453 183.773 66.472C183.005 66.856 182.386 67.4107 181.917 68.136C181.49 68.8613 181.277 69.7573 181.277 70.824L175.645 70.056C175.73 67.4107 176.349 65.1493 177.501 63.272C178.696 61.352 180.253 59.88 182.173 58.856C184.136 57.7893 186.333 57.256 188.765 57.256C191.154 57.256 193.266 57.768 195.101 58.792C196.978 59.7733 198.45 61.2027 199.517 63.08C200.626 64.9147 201.181 67.1333 201.181 69.736V89H191.389ZM220.448 89.64C217.589 89.64 215.029 88.936 212.768 87.528C210.549 86.12 208.779 84.2 207.456 81.768C206.176 79.336 205.536 76.5627 205.536 73.448C205.536 70.3333 206.176 67.56 207.456 65.128C208.779 62.696 210.549 60.776 212.768 59.368C215.029 57.96 217.589 57.256 220.448 57.256C222.539 57.256 224.416 57.6613 226.08 58.472C227.787 59.2827 229.173 60.4133 230.24 61.864C231.307 63.272 231.904 64.8933 232.032 66.728V80.168C231.904 82.0027 231.307 83.6453 230.24 85.096C229.216 86.504 227.851 87.6133 226.144 88.424C224.437 89.2347 222.539 89.64 220.448 89.64ZM222.432 80.808C224.523 80.808 226.208 80.1253 227.488 78.76C228.768 77.352 229.408 75.5813 229.408 73.448C229.408 71.9973 229.109 70.7173 228.512 69.608C227.957 68.4987 227.147 67.6453 226.08 67.048C225.056 66.408 223.861 66.088 222.496 66.088C221.131 66.088 219.915 66.408 218.848 67.048C217.824 67.6453 216.992 68.4987 216.352 69.608C215.755 70.7173 215.456 71.9973 215.456 73.448C215.456 74.856 215.755 76.1147 216.352 77.224C216.949 78.3333 217.781 79.208 218.848 79.848C219.915 80.488 221.109 80.808 222.432 80.808ZM229.024 89V80.616L230.496 73.064L229.024 65.512V57.896H238.624V89H229.024ZM249.935 89V45.032H259.727V89H249.935ZM242.895 66.216V57.896H266.767V66.216H242.895ZM271.081 89V57.896H280.873V89H271.081ZM276.009 53.608C274.473 53.608 273.193 53.096 272.169 52.072C271.188 51.0053 270.697 49.7253 270.697 48.232C270.697 46.696 271.188 45.416 272.169 44.392C273.193 43.368 274.473 42.856 276.009 42.856C277.545 42.856 278.804 43.368 279.785 44.392C280.766 45.416 281.257 46.696 281.257 48.232C281.257 49.7253 280.766 51.0053 279.785 52.072C278.804 53.096 277.545 53.608 276.009 53.608ZM302.809 89.704C299.609 89.704 296.707 89 294.105 87.592C291.502 86.184 289.454 84.2427 287.961 81.768C286.467 79.2933 285.721 76.52 285.721 73.448C285.721 70.3333 286.467 67.56 287.961 65.128C289.497 62.6533 291.566 60.712 294.169 59.304C296.771 57.896 299.694 57.192 302.937 57.192C305.369 57.192 307.587 57.6187 309.593 58.472C311.641 59.2827 313.454 60.52 315.033 62.184L308.761 68.456C308.035 67.6453 307.182 67.048 306.201 66.664C305.262 66.28 304.174 66.088 302.937 66.088C301.529 66.088 300.27 66.408 299.161 67.048C298.094 67.6453 297.241 68.4987 296.601 69.608C296.003 70.6747 295.705 71.9333 295.705 73.384C295.705 74.8347 296.003 76.1147 296.601 77.224C297.241 78.3333 298.115 79.208 299.225 79.848C300.334 80.488 301.571 80.808 302.937 80.808C304.217 80.808 305.347 80.5947 306.329 80.168C307.353 79.6987 308.227 79.0587 308.953 78.248L315.161 84.52C313.539 86.2267 311.705 87.528 309.657 88.424C307.609 89.2773 305.326 89.704 302.809 89.704Z" fill="#222222"/>
</svg>
