<svg width="146" height="29" viewBox="0 0 146 29" fill="none" xmlns="http://www.w3.org/2000/svg">
<path d="M6.89 28.27C5.43 28.27 4.13 28 2.99 27.46C1.87 26.92 0.97 26.16 0.29 25.18L2.03 23.41C2.61 24.15 3.3 24.71 4.1 25.09C4.9 25.49 5.85 25.69 6.95 25.69C8.41 25.69 9.56 25.3 10.4 24.52C11.26 23.76 11.69 22.73 11.69 21.43V17.89L12.17 14.68L11.69 11.5V7.75H14.39V21.43C14.39 22.79 14.07 23.98 13.43 25C12.81 26.02 11.93 26.82 10.79 27.4C9.67 27.98 8.37 28.27 6.89 28.27ZM6.89 21.76C5.59 21.76 4.42 21.45 3.38 20.83C2.36 20.21 1.55 19.36 0.95 18.28C0.35 17.18 0.05 15.95 0.05 14.59C0.05 13.23 0.35 12.02 0.95 10.96C1.55 9.88 2.36 9.03 3.38 8.41C4.42 7.77 5.59 7.45 6.89 7.45C8.01 7.45 9 7.67 9.86 8.11C10.72 8.55 11.4 9.17 11.9 9.97C12.42 10.75 12.7 11.67 12.74 12.73V16.51C12.68 17.55 12.39 18.47 11.87 19.27C11.37 20.05 10.69 20.66 9.83 21.1C8.97 21.54 7.99 21.76 6.89 21.76ZM7.43 19.21C8.31 19.21 9.08 19.02 9.74 18.64C10.42 18.26 10.94 17.73 11.3 17.05C11.66 16.35 11.84 15.54 11.84 14.62C11.84 13.7 11.65 12.9 11.27 12.22C10.91 11.52 10.4 10.98 9.74 10.6C9.08 10.2 8.3 10 7.4 10C6.5 10 5.71 10.2 5.03 10.6C4.35 10.98 3.81 11.52 3.41 12.22C3.03 12.9 2.84 13.69 2.84 14.59C2.84 15.49 3.03 16.29 3.41 16.99C3.81 17.69 4.35 18.24 5.03 18.64C5.73 19.02 6.53 19.21 7.43 19.21ZM18.353 22V7.75H21.053V22H18.353ZM21.053 13.87L20.033 13.42C20.033 11.6 20.453 10.15 21.293 9.07C22.133 7.99 23.343 7.45 24.923 7.45C25.643 7.45 26.293 7.58 26.873 7.84C27.453 8.08 27.993 8.49 28.493 9.07L26.723 10.9C26.423 10.58 26.093 10.35 25.733 10.21C25.373 10.07 24.953 10 24.473 10C23.473 10 22.653 10.32 22.013 10.96C21.373 11.6 21.053 12.57 21.053 13.87ZM36.4353 22.3C35.0353 22.3 33.7753 21.97 32.6553 21.31C31.5353 20.65 30.6453 19.76 29.9853 18.64C29.3253 17.5 28.9953 16.23 28.9953 14.83C28.9953 13.45 29.3253 12.21 29.9853 11.11C30.6453 9.99 31.5353 9.1 32.6553 8.44C33.7753 7.78 35.0353 7.45 36.4353 7.45C37.8153 7.45 39.0653 7.78 40.1853 8.44C41.3253 9.08 42.2253 9.96 42.8853 11.08C43.5453 12.2 43.8753 13.45 43.8753 14.83C43.8753 16.23 43.5453 17.5 42.8853 18.64C42.2253 19.76 41.3253 20.65 40.1853 21.31C39.0653 21.97 37.8153 22.3 36.4353 22.3ZM36.4353 19.69C37.3353 19.69 38.1353 19.48 38.8353 19.06C39.5353 18.64 40.0853 18.07 40.4853 17.35C40.8853 16.61 41.0853 15.77 41.0853 14.83C41.0853 13.91 40.8753 13.09 40.4553 12.37C40.0553 11.65 39.5053 11.09 38.8053 10.69C38.1253 10.27 37.3353 10.06 36.4353 10.06C35.5353 10.06 34.7353 10.27 34.0353 10.69C33.3353 11.09 32.7853 11.65 32.3853 12.37C31.9853 13.09 31.7853 13.91 31.7853 14.83C31.7853 15.77 31.9853 16.61 32.3853 17.35C32.7853 18.07 33.3353 18.64 34.0353 19.06C34.7353 19.48 35.5353 19.69 36.4353 19.69ZM50.5873 22L44.9473 7.75H47.7673L51.8473 18.85H50.9473L54.9973 7.75H56.5573L60.6073 18.85H59.7073L63.7873 7.75H66.6073L60.9973 22H59.4073L55.2973 11.23H56.2873L52.1473 22H50.5873Z" fill="black"/>
<path d="M68.6473 22V7.42H73.2373V22H68.6473ZM77.9773 22V13.48C77.9773 12.74 77.7473 12.17 77.2873 11.77C76.8473 11.35 76.2973 11.14 75.6373 11.14C75.1773 11.14 74.7673 11.24 74.4073 11.44C74.0473 11.62 73.7573 11.88 73.5373 12.22C73.3373 12.56 73.2373 12.98 73.2373 13.48L71.4673 12.7C71.4673 11.54 71.7173 10.55 72.2173 9.73C72.7173 8.89 73.3973 8.25 74.2573 7.81C75.1173 7.35 76.0873 7.12 77.1673 7.12C78.1873 7.12 79.0973 7.35 79.8973 7.81C80.7173 8.27 81.3673 8.91 81.8473 9.73C82.3273 10.55 82.5673 11.53 82.5673 12.67V22H77.9773ZM87.3073 22V13.48C87.3073 12.74 87.0773 12.17 86.6173 11.77C86.1773 11.35 85.6273 11.14 84.9673 11.14C84.5073 11.14 84.0973 11.24 83.7373 11.44C83.3773 11.62 83.0873 11.88 82.8673 12.22C82.6673 12.56 82.5673 12.98 82.5673 13.48L79.9273 13.12C79.9673 11.88 80.2573 10.82 80.7973 9.94C81.3573 9.04 82.0873 8.35 82.9873 7.87C83.9073 7.37 84.9373 7.12 86.0773 7.12C87.1973 7.12 88.1873 7.36 89.0473 7.84C89.9273 8.3 90.6173 8.97 91.1173 9.85C91.6373 10.71 91.8973 11.75 91.8973 12.97V22H87.3073ZM100.929 22.3C99.5888 22.3 98.3888 21.97 97.3288 21.31C96.2888 20.65 95.4588 19.75 94.8388 18.61C94.2388 17.47 93.9388 16.17 93.9388 14.71C93.9388 13.25 94.2388 11.95 94.8388 10.81C95.4588 9.67 96.2888 8.77 97.3288 8.11C98.3888 7.45 99.5888 7.12 100.929 7.12C101.909 7.12 102.789 7.31 103.569 7.69C104.369 8.07 105.019 8.6 105.519 9.28C106.019 9.94 106.299 10.7 106.359 11.56V17.86C106.299 18.72 106.019 19.49 105.519 20.17C105.039 20.83 104.399 21.35 103.599 21.73C102.799 22.11 101.909 22.3 100.929 22.3ZM101.859 18.16C102.839 18.16 103.629 17.84 104.229 17.2C104.829 16.54 105.129 15.71 105.129 14.71C105.129 14.03 104.989 13.43 104.709 12.91C104.449 12.39 104.069 11.99 103.569 11.71C103.089 11.41 102.529 11.26 101.889 11.26C101.249 11.26 100.679 11.41 100.179 11.71C99.6988 11.99 99.3088 12.39 99.0088 12.91C98.7288 13.43 98.5888 14.03 98.5888 14.71C98.5888 15.37 98.7288 15.96 99.0088 16.48C99.2888 17 99.6788 17.41 100.179 17.71C100.679 18.01 101.239 18.16 101.859 18.16ZM104.949 22V18.07L105.639 14.53L104.949 10.99V7.42H109.449V22H104.949ZM114.751 22V1.39H119.341V22H114.751ZM111.451 11.32V7.42H122.641V11.32H111.451ZM124.663 22V7.42H129.253V22H124.663ZM126.973 5.41C126.253 5.41 125.653 5.17 125.173 4.69C124.713 4.19 124.483 3.59 124.483 2.89C124.483 2.17 124.713 1.57 125.173 1.09C125.653 0.609999 126.253 0.37 126.973 0.37C127.693 0.37 128.283 0.609999 128.743 1.09C129.203 1.57 129.433 2.17 129.433 2.89C129.433 3.59 129.203 4.19 128.743 4.69C128.283 5.17 127.693 5.41 126.973 5.41ZM139.535 22.33C138.035 22.33 136.675 22 135.455 21.34C134.235 20.68 133.275 19.77 132.575 18.61C131.875 17.45 131.525 16.15 131.525 14.71C131.525 13.25 131.875 11.95 132.575 10.81C133.295 9.65 134.265 8.74 135.485 8.08C136.705 7.42 138.075 7.09 139.595 7.09C140.735 7.09 141.775 7.29 142.715 7.69C143.675 8.07 144.525 8.65 145.265 9.43L142.325 12.37C141.985 11.99 141.585 11.71 141.125 11.53C140.685 11.35 140.175 11.26 139.595 11.26C138.935 11.26 138.345 11.41 137.825 11.71C137.325 11.99 136.925 12.39 136.625 12.91C136.345 13.41 136.205 14 136.205 14.68C136.205 15.36 136.345 15.96 136.625 16.48C136.925 17 137.335 17.41 137.855 17.71C138.375 18.01 138.955 18.16 139.595 18.16C140.195 18.16 140.725 18.06 141.185 17.86C141.665 17.64 142.075 17.34 142.415 16.96L145.325 19.9C144.565 20.7 143.705 21.31 142.745 21.73C141.785 22.13 140.715 22.33 139.535 22.33Z" fill="#8000FF"/>
</svg>
