<svg width="154" height="38" viewBox="0 0 154 38" fill="none" xmlns="http://www.w3.org/2000/svg">
          <mask id="mask0_1455_48" style="mask-type:luminance" maskUnits="userSpaceOnUse" x="-1" y="0" width="155" height="38">
          <path d="M154 0H-1V38H154V0Z" fill="white"></path>
          </mask>
          <g mask="url(#mask0_1455_48)">
          <path d="M0 26.1239L4.72512 22.4719C7.23492 25.777 9.90212 27.3007 12.871 27.3007C15.8243 27.3007 18.4152 25.7948 20.8129 22.516L25.606 26.0798C22.1471 30.8085 17.8488 33.3076 12.8722 33.3076C7.90858 33.3076 3.56858 30.8252 0 26.1239Z" fill="url(#paint0_linear_1455_48)"></path>
          <path d="M12.8569 10.2519L4.44747 17.5643L0.560547 13.0145L12.8759 2.30762L25.0935 13.0228L21.1875 17.556L12.8569 10.2519Z" fill="url(#paint1_linear_1455_48)"></path>
          <path fill-rule="evenodd" clip-rule="evenodd" d="M51.5014 4.35839C51.5014 5.56739 52.3754 6.4485 53.5737 6.4485V6.45089C54.7326 6.45089 55.628 5.56858 55.628 4.35839C55.628 3.18993 54.7338 2.30762 53.5737 2.30762C52.4171 2.30762 51.5014 3.18993 51.5014 4.35839ZM50.1839 3.12793V18.7733H46.607V3.12912L50.1839 3.12793ZM39.2898 18.9999C37.096 18.9999 35.2658 18.2821 33.7825 16.8466C32.2993 15.392 31.5684 13.5248 31.5684 11.2475C31.5684 8.95235 32.3196 7.06493 33.8028 5.58885C35.3075 4.0925 37.1365 3.35446 39.3101 3.35446C41.9952 3.35446 44.3714 4.52293 45.7557 6.34835L43.3341 8.91181C42.1752 7.65989 40.9137 7.02558 39.5545 7.02558C38.3944 7.02558 37.4394 7.41427 36.6453 8.21431C35.8739 9.01435 35.4887 10.0206 35.4887 11.2296C35.4887 12.3981 35.8739 13.3829 36.6453 14.183C37.4394 14.9615 38.3944 15.3514 39.5319 15.3514C41.0163 15.3514 42.3183 14.6945 43.3949 13.402L45.9155 15.8438C45.2239 16.7667 44.2892 17.525 43.1302 18.12C41.9725 18.7149 40.692 19.0011 39.2886 19.0011L39.2898 18.9999ZM55.3836 7.45243V18.7733H51.7852V7.45362L55.3836 7.45243ZM57.9625 17.3581C59.0797 18.4669 60.5022 19.0202 62.2715 19.0202C64.649 19.0202 66.6604 17.8517 67.6369 15.9643L64.7706 14.2426C64.3652 15.1249 63.409 15.6972 62.3729 15.6972C60.9278 15.6972 59.8512 14.5895 59.8512 13.0932C59.8392 12.4136 60.0944 11.7578 60.563 11.269C61.0518 10.7765 61.6611 10.5297 62.4134 10.5297C63.4507 10.5297 64.2436 11.0222 64.8124 11.9867L67.6775 10.4689C66.7236 8.31566 64.6693 7.16627 62.3312 7.16627C60.5427 7.16627 59.1 7.7195 57.9828 8.82835C56.8644 9.936 56.3148 11.35 56.3148 13.0932C56.3148 14.8363 56.8632 16.2528 57.9625 17.3581ZM80.1156 18.7745H75.8424L72.5278 14.2819L72.0008 14.7743V18.7733H68.4239V3.12912H72.002V10.736L75.3762 7.456H79.746L74.9291 12.0082L80.1132 18.7769L80.1156 18.7745ZM80.3541 3.61796V12.8881C80.3541 17.3593 83.4446 19.0404 86.5541 19.0404C89.6839 19.0404 92.7541 17.3593 92.7541 12.8881V3.61916H88.9101V12.8273C88.9101 14.4882 87.9348 15.3502 86.5529 15.3502C85.1496 15.3502 84.1742 14.5299 84.1742 12.8273V3.61916H80.3529L80.3541 3.61796ZM101.247 7.16746C102.853 7.16746 104.155 7.74096 105.191 8.88916C106.227 10.017 106.735 11.4323 106.735 13.0932C106.735 14.7553 106.207 16.1693 105.171 17.3378C104.134 18.486 102.834 19.0619 101.267 19.0619C100.027 19.0619 98.9493 18.6517 98.0754 17.8314V23.4305H94.4782V7.45362H98.0157V8.50046C98.8885 7.61816 99.9664 7.16746 101.247 7.16746ZM100.556 10.5297C102.021 10.5297 103.076 11.6577 103.076 13.1349H103.077C103.087 13.8191 102.831 14.4804 102.364 14.9806C101.898 15.4933 101.288 15.7401 100.557 15.7401C99.8233 15.7401 99.214 15.4933 98.7264 14.9806C98.2599 14.4803 98.0052 13.8189 98.0157 13.1349C98.0157 11.6577 99.0924 10.5297 100.556 10.5297Z" fill="black"></path>
          <path d="M33.4465 26.8025H31.6855V25.6102H36.4595V26.8025H34.6984V31.7768H33.4465V26.8025ZM37.1069 31.7768V25.4337H38.2503V27.8207C38.484 27.4368 39.0098 27.1029 39.6859 27.1029C40.6039 27.1029 41.4552 27.7122 41.4552 28.9987V31.7768H40.2784V29.3147C40.2784 28.5802 39.8945 28.1879 39.327 28.1879C38.7094 28.1879 38.2837 28.6553 38.2837 29.3397V31.7768H37.1069ZM46.8767 29.3981C46.8767 29.5817 46.86 29.7487 46.8349 29.9156H43.4214C43.5632 30.4664 43.9722 30.8837 44.7484 30.8837C45.2492 30.8837 45.8334 30.693 46.2173 30.4247L46.6847 31.251C46.1031 31.6597 45.4092 31.8784 44.6983 31.8769C42.9957 31.8769 42.2279 30.7168 42.2279 29.4983C42.2279 28.1391 43.1793 27.1113 44.5982 27.1113C45.8918 27.1113 46.8767 27.9542 46.8767 29.3981ZM44.5982 28.0878C44.0056 28.0878 43.5632 28.4467 43.4214 29.0392H45.7332C45.6247 28.455 45.1991 28.0878 44.5982 28.0878ZM54.1629 29.3993C54.1629 29.5817 54.1462 29.7487 54.1211 29.9156H50.7087C50.8518 30.4664 51.2596 30.8837 52.0358 30.8837C52.5366 30.8837 53.1208 30.693 53.5047 30.4247L53.9721 31.251C53.3905 31.6597 52.6966 31.8784 51.9857 31.8769C50.2831 31.8769 49.5152 30.7168 49.5152 29.4983C49.5152 28.1391 50.4667 27.1113 51.8856 27.1113C53.1792 27.1113 54.1641 27.9542 54.1641 29.3981L54.1629 29.3993ZM51.8856 28.0878C51.2918 28.0878 50.8494 28.4467 50.7076 29.0392H53.0206C52.9109 28.455 52.4865 28.0878 51.8856 28.0878ZM57.8328 27.2293H59.1264L57.1472 31.7684H56.247L54.2773 27.2281H55.571L56.7144 30.1743L57.8328 27.2293ZM63.9028 29.3993C63.9028 29.5817 63.8861 29.7487 63.8611 29.9156H60.4475C60.5906 30.4664 60.9984 30.8837 61.7746 30.8837C62.2753 30.8837 62.8596 30.693 63.2435 30.4247L63.7109 31.251C63.1293 31.6597 62.4354 31.8784 61.7245 31.8769C60.0219 31.8769 59.254 30.7168 59.254 29.4983C59.254 28.1391 60.2055 27.1113 61.6243 27.1113C62.918 27.1113 63.9028 27.9554 63.9028 29.3993ZM61.6255 28.0878C61.0317 28.0878 60.5894 28.4467 60.4475 29.0392H62.7606C62.6509 28.455 62.2264 28.0878 61.6255 28.0878ZM64.7136 31.7768V27.2281H65.8391V27.8374C66.1229 27.3366 66.5569 27.1029 67.0911 27.1029C67.258 27.1029 67.4583 27.1363 67.6419 27.2031L67.5417 28.3298C67.3667 28.2717 67.1837 28.2407 66.9992 28.238C66.3816 28.238 65.8904 28.6219 65.8904 29.6151V31.7768H64.7136ZM71.4931 27.2281H72.7785L70.9506 32.0021C70.5166 33.1205 69.949 33.7131 69.0226 33.7131C68.6804 33.7131 68.3716 33.6296 68.1462 33.4877L68.3466 32.5029C68.5218 32.5864 68.7221 32.6531 68.9308 32.6531C69.3064 32.6531 69.5818 32.4361 69.8155 31.9354L69.9073 31.7267L67.9209 27.2281H69.2813L70.4581 30.191L71.4931 27.2281ZM76.3219 30.5833L76.6736 31.5097C76.3147 31.7517 75.7973 31.8853 75.3299 31.8853C74.2866 31.8853 73.7441 31.2677 73.7441 30.0909V28.213H73.0014V27.2281H73.7525V25.6185H74.9209V27.2281H76.4232V28.213H74.9209V30.0157C74.9209 30.5416 75.1212 30.817 75.5636 30.817C75.8557 30.817 76.0966 30.7097 76.3219 30.5833ZM77.2316 31.7768V25.4337H78.3762V27.8207C78.6087 27.4368 79.1346 27.1029 79.8106 27.1029C80.7287 27.1029 81.58 27.7122 81.58 28.9987V31.7768H80.4032V29.3147C80.4032 28.5802 80.0192 28.1879 79.4517 28.1879C78.8341 28.1879 78.4084 28.6553 78.4084 29.3397V31.7768H77.2316ZM83.1956 26.719C83.0996 26.7211 83.0043 26.7038 82.9152 26.6681C82.8261 26.6323 82.7453 26.5789 82.6774 26.5111C82.6096 26.4432 82.5561 26.3623 82.5204 26.2733C82.4847 26.1842 82.4673 26.0888 82.4694 25.9929C82.4694 25.5839 82.7866 25.2751 83.1967 25.2751C83.6045 25.2751 83.9217 25.5851 83.9217 25.9929C83.9217 26.4102 83.6045 26.719 83.1956 26.719ZM83.7798 31.7768H82.6031V27.2281H83.7798V31.7768ZM84.829 31.7768V27.2281H85.9796V27.8624C86.2133 27.4368 86.7307 27.1029 87.4068 27.1029C88.3249 27.1029 89.1845 27.7122 89.1845 28.9987V31.7768H88.0077V29.3147C88.0077 28.5802 87.6154 28.1879 87.0479 28.1879C86.4303 28.1879 86.0046 28.6553 86.0046 29.3397V31.7768H84.829ZM93.6712 27.2281H94.7562V31.3261C94.7562 32.8046 93.6962 33.7047 92.2356 33.7047C91.4891 33.7035 90.7608 33.4734 90.1491 33.0454L90.6081 32.1607C91.0171 32.4361 91.593 32.6949 92.2022 32.6949C93.1287 32.6949 93.6211 32.144 93.6211 31.4346V31.2009C93.3039 31.5514 92.8532 31.7851 92.2189 31.7851C90.8752 31.7851 89.9488 30.7919 89.9488 29.4566C89.9488 28.0794 90.9754 27.1113 92.269 27.1113C92.8866 27.1113 93.3457 27.37 93.6712 27.7289V27.2281ZM92.3954 30.7586C93.1203 30.7586 93.6545 30.1994 93.6545 29.4649C93.6545 28.7304 93.1203 28.1891 92.3942 28.1891C91.6681 28.1891 91.1339 28.7304 91.1339 29.4649C91.1339 30.2077 91.6693 30.7586 92.3954 30.7586ZM101.35 27.2293H102.467V31.7768H101.349V31.2522C101.015 31.6099 100.539 31.8853 99.8962 31.8853C98.5775 31.8853 97.6427 30.8337 97.6427 29.4816C97.6427 28.1128 98.6025 27.1113 99.8962 27.1113C100.54 27.1113 101.006 27.3951 101.349 27.7706V27.2281L101.35 27.2293ZM100.088 30.8182C100.839 30.8182 101.365 30.2161 101.365 29.4983C101.365 28.7889 100.841 28.1879 100.089 28.1879C99.3287 28.1879 98.8195 28.7889 98.8195 29.4995C98.8195 30.2244 99.337 30.817 100.088 30.817V30.8182ZM106.138 27.1113C107.44 27.1113 108.375 28.1796 108.375 29.4983C108.375 30.817 107.44 31.8853 106.13 31.8853C105.495 31.8853 105.036 31.6111 104.703 31.251V33.6475H103.526V27.2269H104.694V27.7873C105.028 27.4022 105.495 27.1101 106.137 27.1101L106.138 27.1113ZM105.929 30.8086C106.689 30.8086 107.19 30.2244 107.19 29.5066C107.19 28.7889 106.689 28.2046 105.929 28.2046C105.178 28.2046 104.677 28.7889 104.677 29.5066C104.677 30.2244 105.178 30.8086 105.929 30.8086ZM111.819 27.1125C113.12 27.1125 114.055 28.1796 114.055 29.4983C114.055 30.817 113.12 31.8853 111.81 31.8853C111.177 31.8853 110.718 31.6111 110.383 31.251V33.6475H109.207V27.2269H110.376V27.7873C110.709 27.4022 111.177 27.1101 111.818 27.1101L111.819 27.1125ZM111.611 30.8086C112.37 30.8086 112.87 30.2244 112.87 29.5066C112.87 28.7889 112.369 28.2046 111.611 28.2046C110.86 28.2046 110.359 28.7889 110.359 29.5066C110.359 30.2244 110.86 30.8086 111.611 30.8086ZM119.37 26.2779C118.828 26.2779 118.527 26.5521 118.527 27.0696V27.2281H119.938V28.213H118.527V31.778H117.35V28.213H116.649V27.2281H117.35V27.0445C117.35 25.8343 118.152 25.2334 119.195 25.2334C119.687 25.2334 120.096 25.3586 120.489 25.5672L120.105 26.4686C119.863 26.3613 119.629 26.2779 119.37 26.2779ZM122.609 31.8936C121.156 31.8936 120.172 30.8253 120.172 29.4983C120.172 28.1879 121.156 27.1029 122.609 27.1029C124.061 27.1029 125.046 28.1879 125.046 29.4995C125.046 30.8253 124.061 31.8936 122.609 31.8936ZM122.609 30.8003C123.318 30.8003 123.869 30.2244 123.869 29.4983C123.869 28.7805 123.318 28.2046 122.609 28.2046C121.899 28.2046 121.348 28.7805 121.348 29.4983C121.348 30.2256 121.899 30.8003 122.609 30.8003ZM125.874 31.778V27.2269H127.001V27.8362C127.285 27.3354 127.719 27.1017 128.253 27.1017C128.42 27.1017 128.62 27.1351 128.804 27.2019L128.704 28.3286C128.529 28.2705 128.346 28.2395 128.161 28.2368C127.544 28.2368 127.051 28.6207 127.051 29.6139V31.7756H125.874V31.778ZM132.241 31.7684L130.689 27.2281H131.924L132.834 30.2089L133.86 27.2281H134.687L135.747 30.2089L136.631 27.2281H137.867L136.331 31.7684H135.304L134.278 28.9224L133.268 31.7684H132.241ZM140.531 31.8936C139.079 31.8936 138.094 30.8253 138.094 29.4983C138.094 28.1879 139.079 27.1029 140.531 27.1029C141.984 27.1029 142.968 28.1879 142.968 29.4995C142.968 30.8253 141.984 31.8936 140.531 31.8936ZM140.531 30.8003C141.241 30.8003 141.792 30.2244 141.792 29.4983C141.792 28.7805 141.241 28.2046 140.531 28.2046C139.822 28.2046 139.271 28.7805 139.271 29.4983C139.271 30.2256 139.822 30.8003 140.531 30.8003ZM143.797 31.778V27.2269H144.924V27.8362C145.208 27.3354 145.642 27.1017 146.176 27.1017C146.343 27.1017 146.543 27.1351 146.727 27.2019L146.626 28.3286C146.451 28.2705 146.268 28.2395 146.084 28.2368C145.466 28.2368 144.974 28.6207 144.974 29.6139V31.7756H143.797V31.778ZM150.299 31.778L148.796 29.8321L148.488 30.1076V31.7768H147.311V25.4337H148.488V28.7805L150.14 27.2281H151.626L149.598 29.0893L151.743 31.7768L150.299 31.778Z" fill="black"></path>
          <path d="M153 31.8C153.276 31.8 153.5 31.5762 153.5 31.3C153.5 31.0239 153.276 30.8 153 30.8C152.724 30.8 152.5 31.0239 152.5 31.3C152.5 31.5762 152.724 31.8 153 31.8Z" fill="black"></path>
          <path d="M114.688 31C115.008 31 115.24 31.248 115.24 31.592C115.24 32.048 114.904 32.496 114.248 32.912L114 32.568C114.288 32.352 114.536 32.176 114.648 31.952H114.616C114.376 31.952 114.168 31.744 114.168 31.496C114.168 31.224 114.408 31 114.688 31Z" fill="black"></path>
          </g>
          <defs>
          <linearGradient id="paint0_linear_1455_48" x1="0" y1="35.2594" x2="25.606" y2="35.2594" gradientUnits="userSpaceOnUse">
          <stop stop-color="#7612FA"></stop>
          <stop offset="1" stop-color="#40DDFF"></stop>
          </linearGradient>
          <linearGradient id="paint1_linear_1455_48" x1="0.559354" y1="20.3114" x2="25.0935" y2="20.3114" gradientUnits="userSpaceOnUse">
          <stop stop-color="#FA12E3"></stop>
          <stop offset="1" stop-color="#FFD700"></stop>
          </linearGradient>
          </defs>
        </svg>